<svg xmlns="http://www.w3.org/2000/svg" enable-background="new 0 0 64 64" viewBox="0 0 64 64" id="AlienRobot"><path d="M36.57 7.59c-1.76 0-3.19 1.43-3.19 3.19s1.43 3.2 3.19 3.2 3.2-1.44 3.2-3.2S38.33 7.59 36.57 7.59zM36.57 12.04c-.69 0-1.25-.56-1.25-1.26 0-.69.56-1.25 1.25-1.25s1.26.56 1.26 1.25C37.83 11.48 37.26 12.04 36.57 12.04zM27.62 7.59c-1.76 0-3.19 1.43-3.19 3.19s1.43 3.2 3.19 3.2c1.77 0 3.2-1.44 3.2-3.2S29.39 7.59 27.62 7.59zM27.62 12.04c-.69 0-1.25-.56-1.25-1.26 0-.69.56-1.25 1.25-1.25.7 0 1.26.56 1.26 1.25C28.88 11.48 28.32 12.04 27.62 12.04z" fill="#595bd4" class="color000000 svgShape"></path><path d="M52.05,44.09l-3.14-2.15c0.51-0.9,0.71-1.79,0.56-2.66c-0.25-1.48-1.44-2.17-2.6-2.17c-0.12,0-0.24,0-0.36,0.02l-2.32-3.71
		c0.1-0.12,0.19-0.24,0.27-0.37c1.07-1.76,0.06-4.24-0.98-6.01c-0.63-1.09-1.55-1.88-2.66-2.3c-1.41-0.52-2.71-0.28-3.76,0.63v-3.6
		C42.28,20.15,46,16.05,46,11.26C46,5.05,39.77,0,32.1,0c-7.67,0-13.9,5.05-13.9,11.26c0,4.79,3.72,8.88,8.94,10.51v3.73
		c-1.08-1.01-2.44-1.3-3.92-0.76c-1.1,0.42-2.05,1.24-2.65,2.3c-1.04,1.78-2.06,4.28-0.98,6.03c0.07,0.11,0.15,0.22,0.24,0.32
		l-2.34,3.74c-1.27-0.16-2.68,0.52-2.96,2.15c-0.03,0.19-0.05,0.38-0.05,0.57c0,0.69,0.21,1.39,0.61,2.09l-3.14,2.15
		c-0.26,0.18-0.42,0.48-0.42,0.8v3.77c0,0.54,0.44,0.97,0.97,0.97c0.54,0,0.97-0.43,0.97-0.97V45.4L16,43.67l0.99,3.7
		c0.12,0.43,0.51,0.72,0.94,0.72c0.08,0,0.17-0.01,0.25-0.04c0.52-0.14,0.82-0.67,0.69-1.19l-0.95-3.5
		c0.81-0.26,1.72-1.05,1.96-3.28c0.08-0.86-0.19-1.56-0.66-2.07l2.24-3.57c0.49,0.16,1.05,0.25,1.69,0.28
		c-0.01,0.27-0.03,0.55-0.03,0.83c0,1.34,0.21,2.62,0.59,3.81c-1.08,2.04-2.46,5.54-1.25,8.43c0.27,0.65,0.72,1.18,1.27,1.54v3.25
		c-1.15,0.4-1.98,1.49-1.98,2.78c0,1.28,0.83,2.37,1.98,2.77v3.93h-2.14c-0.54,0-0.97,0.44-0.97,0.97c0,0.54,0.43,0.97,0.97,0.97
		h6.23c0.53,0,0.97-0.43,0.97-0.97c0-0.53-0.44-0.97-0.97-0.97h-2.15v-3.93c1.15-0.4,1.99-1.49,1.99-2.77
		c0-1.29-0.84-2.38-1.99-2.78v-2.72c1.23-0.04,2.32-0.73,2.89-1.84c0.35-0.67,0.59-1.43,0.73-2.24c0.89,0.36,1.83,0.55,2.81,0.55
		c0.92,0,1.8-0.17,2.64-0.47c0.14,0.77,0.38,1.5,0.72,2.15c0.57,1.12,1.66,1.81,2.88,1.85v2.72c-1.15,0.4-1.98,1.49-1.98,2.78
		c0,1.28,0.83,2.37,1.98,2.77v3.93H36.2c-0.54,0-0.97,0.44-0.97,0.97c0,0.54,0.43,0.97,0.97,0.97h6.23c0.53,0,0.97-0.43,0.97-0.97
		c0-0.53-0.44-0.97-0.97-0.97h-2.15v-3.93c1.16-0.4,1.99-1.49,1.99-2.77c0-1.29-0.83-2.38-1.99-2.78v-3.25
		c0.56-0.36,1.01-0.89,1.28-1.54c1.18-2.82-0.11-6.22-1.14-8.21c0.42-1.25,0.66-2.61,0.66-4.03c0-0.28-0.02-0.56-0.04-0.84
		c0.56-0.04,1.07-0.13,1.51-0.26l2.23,3.56c-0.47,0.51-0.74,1.21-0.66,2.07c0.24,2.23,1.15,3.03,1.96,3.28l-0.95,3.5
		c-0.13,0.52,0.17,1.05,0.69,1.19c0.08,0.03,0.17,0.04,0.25,0.04c0.43,0,0.82-0.29,0.94-0.72l0.99-3.7l2.53,1.73v3.26
		c0,0.54,0.43,0.97,0.97,0.97c0.53,0,0.97-0.43,0.97-0.97v-3.77C52.47,44.57,52.31,44.27,52.05,44.09z M17.3,41.53
		c-0.04,0-0.1-0.01-0.15-0.03l-0.03-0.03c-0.04-0.02-0.08-0.05-0.11-0.09c-0.46-0.65-0.66-1.25-0.57-1.77
		c0.1-0.59,0.6-0.59,0.81-0.56c0.13,0.02,0.77,0.14,0.7,0.83C17.84,40.95,17.54,41.48,17.3,41.53z M20.13,11.26
		c0-5.14,5.37-9.32,11.97-9.32c6.6,0,11.96,4.18,11.96,9.32c0,5.14-5.36,9.32-11.96,9.32C25.5,20.58,20.13,16.4,20.13,11.26z
		 M35.12,22.25v3.16c-0.95-0.41-1.96-0.64-3.02-0.64s-2.08,0.23-3.02,0.64v-3.16c0.97,0.17,1.98,0.27,3.02,0.27
		C33.14,22.52,34.15,22.42,35.12,22.25z M23.43,32.79c-1.13-0.02-1.9-0.27-2.19-0.74c-0.43-0.7-0.06-2.21,1.01-4.04
		c0.38-0.68,0.97-1.19,1.64-1.45c0.41-0.15,1.41-0.51,2.35,0.84C24.89,28.8,23.9,30.66,23.43,32.79z M25.72,55.36
		c0,0.56-0.46,1.01-1.02,1.01s-1.01-0.45-1.01-1.01s0.45-1.02,1.01-1.02S25.72,54.8,25.72,55.36z M26.83,47.13
		c-0.26,0.52-0.76,0.83-1.33,0.8c-0.15-0.01-0.28-0.03-0.42-0.08c-0.37-0.13-0.67-0.41-0.84-0.81c-0.68-1.63-0.17-3.67,0.51-5.32
		c0.72,1.24,1.65,2.28,2.73,3.06C27.4,45.66,27.19,46.45,26.83,47.13z M32.1,44.39c-3.88,0-7.04-3.96-7.04-8.84
		c0-4.87,3.16-8.84,7.04-8.84s7.04,3.97,7.04,8.84C39.14,40.43,35.98,44.39,32.1,44.39z M37.18,47.12
		c-0.33-0.64-0.54-1.39-0.63-2.22c1.1-0.76,2.05-1.78,2.79-3.01c0.61,1.54,1.1,3.56,0.43,5.15c-0.16,0.39-0.46,0.67-0.82,0.8
		c-0.01,0.01-0.02,0.01-0.03,0.02c-0.13,0.04-0.26,0.06-0.4,0.07C37.92,47.95,37.45,47.65,37.18,47.12z M40.33,55.36
		c0,0.56-0.46,1.01-1.02,1.01s-1.01-0.45-1.01-1.01s0.45-1.02,1.01-1.02S40.33,54.8,40.33,55.36z M42.81,32.04
		c-0.09,0.14-0.22,0.27-0.39,0.37c-0.37,0.22-0.94,0.34-1.65,0.37c-0.48-2.17-1.51-4.07-2.9-5.47c0.92-1.25,1.88-0.89,2.27-0.75
		c0.68,0.25,1.26,0.76,1.67,1.46C42.85,29.8,43.23,31.34,42.81,32.04z M46.99,41.38c-0.08,0.1-0.2,0.16-0.29,0.15
		c-0.24-0.05-0.54-0.58-0.65-1.65c-0.07-0.69,0.57-0.81,0.7-0.83c0.04,0,0.09-0.01,0.14-0.01c0.24,0,0.59,0.09,0.67,0.57
		C47.65,40.13,47.45,40.73,46.99,41.38z" fill="#595bd4" class="color000000 svgShape"></path><path fill="#167ffc" d="M35.12 22.25v3.16c-.95-.41-1.96-.64-3.02-.64s-2.08.23-3.02.64v-3.16c.97.17 1.98.27 3.02.27C33.14 22.52 34.15 22.42 35.12 22.25zM17.95 39.88c-.11 1.07-.41 1.6-.65 1.65-.04 0-.1-.01-.15-.03l-.03-.03c-.04-.02-.08-.05-.11-.09-.46-.65-.66-1.25-.57-1.77.1-.59.6-.59.81-.56C17.38 39.07 18.02 39.19 17.95 39.88zM46.99 41.38c-.08.1-.2.16-.29.15-.24-.05-.54-.58-.65-1.65-.07-.69.57-.81.7-.83.04 0 .09-.01.14-.01.24 0 .59.09.67.57C47.65 40.13 47.45 40.73 46.99 41.38zM40.33 55.36c0 .56-.46 1.01-1.02 1.01s-1.01-.45-1.01-1.01.45-1.02 1.01-1.02S40.33 54.8 40.33 55.36zM25.72 55.36c0 .56-.46 1.01-1.02 1.01s-1.01-.45-1.01-1.01.45-1.02 1.01-1.02S25.72 54.8 25.72 55.36zM27.48 44.78c-.08.88-.29 1.67-.65 2.35-.26.52-.76.83-1.33.8-.15-.01-.28-.03-.42-.08-.37-.13-.67-.41-.84-.81-.68-1.63-.17-3.67.51-5.32C25.47 42.96 26.4 44 27.48 44.78zM39.77 47.04c-.16.39-.46.67-.82.8-.01.01-.02.01-.03.02-.13.04-.26.06-.4.07-.6.02-1.07-.28-1.34-.81-.33-.64-.54-1.39-.63-2.22 1.1-.76 2.05-1.78 2.79-3.01C39.95 43.43 40.44 45.45 39.77 47.04zM32.1 1.94c-6.6 0-11.97 4.18-11.97 9.32 0 5.14 5.37 9.32 11.97 9.32 6.6 0 11.96-4.18 11.96-9.32C44.06 6.12 38.7 1.94 32.1 1.94zM27.62 13.98c-1.76 0-3.19-1.44-3.19-3.2s1.43-3.19 3.19-3.19c1.77 0 3.2 1.43 3.2 3.19S29.39 13.98 27.62 13.98zM36.57 13.98c-1.76 0-3.19-1.44-3.19-3.2s1.43-3.19 3.19-3.19 3.2 1.43 3.2 3.19S38.33 13.98 36.57 13.98z" class="color53b4ed svgShape"></path><path fill="#fe9526" d="M28.88 10.78c0 .7-.56 1.26-1.26 1.26-.69 0-1.25-.56-1.25-1.26 0-.69.56-1.25 1.25-1.25C28.32 9.53 28.88 10.09 28.88 10.78zM37.83 10.78c0 .7-.57 1.26-1.26 1.26s-1.25-.56-1.25-1.26c0-.69.56-1.25 1.25-1.25S37.83 10.09 37.83 10.78z" class="colorfa5669 svgShape"></path><path fill="#167ffc" d="M26.24 27.4c-1.35 1.4-2.34 3.26-2.81 5.39-1.13-.02-1.9-.27-2.19-.74-.43-.7-.06-2.21 1.01-4.04.38-.68.97-1.19 1.64-1.45C24.3 26.41 25.3 26.05 26.24 27.4zM42.81 32.04c-.09.14-.22.27-.39.37-.37.22-.94.34-1.65.37-.48-2.17-1.51-4.07-2.9-5.47.92-1.25 1.88-.89 2.27-.75.68.25 1.26.76 1.67 1.46C42.85 29.8 43.23 31.34 42.81 32.04z" class="color53b4ed svgShape"></path><ellipse cx="32.1" cy="35.55" fill="#167ffc" rx="7.04" ry="8.84" class="color53b4ed svgShape"></ellipse></svg>